HIERARCHY
ROOT RootJoint
{
    OFFSET   0.000000   0.000000   0.000000
    CHANNELS 6 Xposition Yposition Zposition Xrotation Yrotation Zrotation
    JOINT pelvis_lowerback
    {
        OFFSET   0.000000   0.093605   0.000000
        CHANNELS 3 Xrotation Yrotation Zrotation
        JOINT lowerback_torso
        {
            OFFSET   0.000000   0.100000   0.000000
            CHANNELS 3 Xrotation Yrotation Zrotation
            JOINT torso_head
            {
                OFFSET   0.000000   0.282350   0.000000
                CHANNELS 3 Xrotation Yrotation Zrotation
                End Site
                {
                    OFFSET   0.000000   0.192650   0.000000
                }
            }
            JOINT rTorso_Clavicle
            {
                OFFSET  -0.001000   0.157500   0.000000
                CHANNELS 3 Xrotation Yrotation Zrotation
                JOINT rShoulder
                {
                    OFFSET  -0.117647   0.000000   0.000000
                    CHANNELS 3 Xrotation Yrotation Zrotation
                    JOINT rElbow
                    {
                        OFFSET  -0.245000   0.000000   0.000000
                        CHANNELS 3 Xrotation Yrotation Zrotation
                        JOINT rWrist
                        {
                            OFFSET  -0.240000   0.000000   0.000000
                            CHANNELS 3 Xrotation Yrotation Zrotation
                            End Site
                            {
                                OFFSET  -0.116353  -0.002500   0.000000
                            }
                        }
                    }
                }
            }
            JOINT lTorso_Clavicle
            {
                OFFSET   0.001000   0.157500   0.000000
                CHANNELS 3 Xrotation Yrotation Zrotation
                JOINT lShoulder
                {
                    OFFSET   0.117647   0.000000   0.000000
                    CHANNELS 3 Xrotation Yrotation Zrotation
                    JOINT lElbow
                    {
                        OFFSET   0.245000   0.000000   0.000000
                        CHANNELS 3 Xrotation Yrotation Zrotation
                        JOINT lWrist
                        {
                            OFFSET   0.240000   0.000000   0.000000
                            CHANNELS 3 Xrotation Yrotation Zrotation
                            End Site
                            {
                                OFFSET   0.116353  -0.002500   0.000000
                            }
                        }
                    }
                }
            }
        }
    }
    JOINT rHip
    {
        OFFSET  -0.100000  -0.051395   0.000000
        CHANNELS 3 Xrotation Yrotation Zrotation
        JOINT rKnee
        {
            OFFSET   0.000000  -0.410000   0.000000
            CHANNELS 3 Xrotation Yrotation Zrotation
            JOINT rAnkle
            {
                OFFSET   0.000000  -0.390000   0.000000
                CHANNELS 3 Xrotation Yrotation Zrotation
                JOINT rToeJoint
                {
                    OFFSET   0.000000  -0.050000   0.130000
                    CHANNELS 3 Xrotation Yrotation Zrotation
                    End Site
                    {
                        OFFSET  -0.010000   0.002000   0.060000
                    }
                }
            }
        }
    }
    JOINT lHip
    {
        OFFSET   0.100000  -0.051395   0.000000
        CHANNELS 3 Xrotation Yrotation Zrotation
        JOINT lKnee
        {
            OFFSET   0.000000  -0.410000   0.000000
            CHANNELS 3 Xrotation Yrotation Zrotation
            JOINT lAnkle
            {
                OFFSET   0.000000  -0.390000   0.000000
                CHANNELS 3 Xrotation Yrotation Zrotation
                JOINT lToeJoint
                {
                    OFFSET   0.000000  -0.050000   0.130000
                    CHANNELS 3 Xrotation Yrotation Zrotation
                    End Site
                    {
                        OFFSET   0.010000   0.002000   0.060000
                    }
                }
            }
        }
    }
}
MOTION
Frames: 14
Frame Time:   0.008333
 -2.668297   0.887076   4.243191  -2.690326  -3.591206   0.622675   3.101501   0.967067  -1.290281   0.782986  -5.574351   2.075393  -0.955434   0.095273   0.998230  -4.316489   4.164801  -4.257411 -18.633772   9.016315  11.087077   0.002037  75.138901  -0.002790  -1.952681   5.915067  -3.755954  -5.198457  -9.275927   2.974105 -12.427572 -21.182421 -18.490489  -0.000868 -86.736409  -0.000993  -0.771305 -10.017758  -1.073518  -5.318680   1.640005  -4.952563  31.032326  -0.001089  -0.006176 -22.840939  -3.150143   2.385500   1.149236  -0.000336  -0.000010 -28.859459  -0.208153   6.173667  42.474029  -0.008512   0.001621 -10.296408   5.579356  -0.392218  -0.169767  -0.000140  -0.000041
 -2.667408   0.888859   4.239364  -2.677082  -3.569379   0.591115   2.905084   1.046104  -1.265770   0.774767  -5.539521   2.000980  -0.791234   0.089523   1.010569  -4.252904   4.009926  -4.358390 -18.543827   8.864610  11.190927   0.001650  75.123435  -0.002244  -1.977954   5.918908  -3.661933  -5.220473  -9.192158   2.970461 -12.491877 -21.225078 -18.683333  -0.004513 -86.820713  -0.004671  -0.782602  -9.994601  -1.118904  -5.249072   1.748746  -4.927377  30.255396  -0.001294  -0.005761 -22.073225  -3.281628   2.383653   0.778762  -0.000358  -0.000021 -27.923056  -0.506454   6.407916  43.131842  -0.009109   0.000648 -10.656725   5.597540  -0.058140  -0.177425  -0.000057  -0.000021
 -2.666420   0.890557   4.235669  -2.640515  -3.567378   0.563385   2.682239   1.122039  -1.249191   0.748225  -5.498033   1.929661  -0.631661   0.084791   1.018392  -4.193269   3.866548  -4.446221 -18.459943   8.720690  11.293449   0.001367  75.103656  -0.001833  -2.006911   5.890951  -3.583923  -5.251210  -9.109468   2.980060 -12.559570 -21.269793 -18.856724  -0.008246 -86.911275  -0.008400  -0.793569  -9.992633  -1.147341  -5.201412   1.860580  -4.916586  29.492571  -0.001467  -0.005281 -21.344863  -3.396754   2.382526   0.531846  -0.000365  -0.000022 -26.970224  -0.804904   6.672341  43.753457  -0.009645  -0.000112 -10.994188   5.612673   0.255389  -0.191156   0.000054   0.000007
 -2.665314   0.892154   4.232048  -2.580109  -3.553252   0.542550   2.448599   1.184795  -1.236994   0.699811  -5.465169   1.861700  -0.484911   0.080116   1.023949  -4.139170   3.729906  -4.528821 -18.382191   8.584693  11.388328   0.001154  75.084363  -0.001517  -2.035519   5.854437  -3.517446  -5.288236  -9.034034   2.998411 -12.629031 -21.314080 -19.012917  -0.011380 -86.998439  -0.011504  -0.803717  -9.991214  -1.152589  -5.181103   1.962120  -4.922613  28.755274  -0.001649  -0.004854 -20.655529  -3.513007   2.381496   0.377862  -0.000354  -0.000020 -26.033537  -1.083635   6.950498  44.346913  -0.009970  -0.000516 -11.308572   5.624990   0.548410  -0.201129   0.000115   0.000021
 -2.664077   0.893646   4.228471  -2.501400  -3.517788   0.528731   2.213029   1.233814  -1.226502   0.636433  -5.443396   1.797360  -0.350166   0.075479   1.028268  -4.091340   3.598644  -4.608878 -18.310981   8.456005  11.474167   0.000990  75.065924  -0.001271  -2.063111   5.815951  -3.464134  -5.329253  -8.967445   3.022203 -12.699030 -21.358191 -19.154819  -0.013761 -87.080823  -0.013842  -0.813122  -9.990239  -1.138970  -5.185128   2.050279  -4.945910  28.047494  -0.001844  -0.004504 -20.002881  -3.636023   2.380166   0.298076  -0.000322  -0.000017 -25.123004  -1.339480   7.235094  44.911860  -0.010065  -0.000616 -11.601622   5.634881   0.822075  -0.208686   0.000144   0.000027
 -2.662701   0.895034   4.224917  -2.409490  -3.459303   0.521140   1.981499   1.270838  -1.215991   0.564423  -5.431719   1.737072  -0.225932   0.070951   1.031870  -4.049458   3.472652  -4.686918 -18.246028   8.334317  11.551315   0.000857  75.048351  -0.001073  -2.089577   5.777049  -3.423840  -5.372273  -8.909470   3.049039 -12.768362 -21.402170 -19.284769  -0.015394 -87.158480  -0.015431  -0.821898  -9.989606  -1.112254  -5.210201   2.124886  -4.986192  27.370771  -0.002046  -0.004222 -19.384567  -3.767049   2.378385   0.281769  -0.000267  -0.000013 -24.243985  -1.572975   7.522455  45.447939  -0.009953  -0.000498 -11.874899   5.642678   1.077608  -0.214699   0.000156   0.000027
 -2.661184   0.896319   4.221375  -2.309092  -3.378097   0.519310   1.758361   1.297834  -1.204884   0.488786  -5.428431   1.681020  -0.110893   0.066574   1.035044  -4.012780   3.352142  -4.762763 -18.186734   8.219427  11.620700   0.000746  75.031623  -0.000912  -2.114948   5.738128  -3.394719  -5.415826  -8.859341   3.077429 -12.836080 -21.445822 -19.404451  -0.016348 -87.231578  -0.016343  -0.830158  -9.989233  -1.077339  -5.253497   2.186774  -5.043311  26.726119  -0.002248  -0.003993 -18.791180  -3.905657   2.375339   0.280606  -0.000214  -0.000011 -23.399813  -1.785554   7.809709  45.955514  -0.009673  -0.000239 -12.129813   5.648668   1.316190  -0.219783   0.000157   0.000026
 -2.659664   0.897514   4.218124  -2.324243  -3.370773   0.473336   1.601583   1.308001  -1.194246   0.458242  -5.362068   1.649820   0.021913   0.014237   1.073071  -3.971204   3.270681  -4.813259 -18.278672   8.131049  11.751839   0.002211  74.822643  -0.002394  -2.128718   5.775323  -3.298687  -5.452867  -8.788084   3.123011 -12.890217 -21.509825 -19.508722  -0.026268 -87.464633  -0.026126  -0.837933  -9.926371  -1.021609  -5.152653   2.246822  -5.080713  26.045702  -0.002380  -0.003432 -18.171193  -3.971384   2.466933   0.202343  -0.000170  -0.000009 -22.245896  -2.158481   8.172961  46.144695  -0.008664  -0.000418 -12.497631   5.512825   1.515985  -0.247889   0.000322   0.000124
 -2.658080   0.898563   4.214952  -2.322958  -3.370290   0.413394   1.425865   1.311684  -1.180082   0.415038  -5.296391   1.627518   0.148239  -0.037020   1.108714  -3.935850   3.202782  -4.857771 -18.368712   8.047729  11.876388   0.003471  74.615608  -0.003660  -2.147581   5.743139  -3.239625  -5.490638  -8.721754   3.172163 -12.943844 -21.579740 -19.605379  -0.036880 -87.700064  -0.036597  -0.847516  -9.960188  -0.975964  -5.085950   2.301890  -5.109473  25.410418  -0.002458  -0.002897 -17.586415  -4.024913   2.560965   0.159525  -0.000136  -0.000008 -21.092129  -2.531927   8.583572  46.279928  -0.007621  -0.000491 -12.842922   5.383099   1.702623  -0.278074   0.000470   0.000209
 -2.656388   0.899490   4.211826  -2.308565  -3.352347   0.352988   1.244861   1.304304  -1.165942   0.359246  -5.243729   1.607643   0.263957  -0.085224   1.141430  -3.904614   3.138319  -4.899263 -18.453914   7.968600  11.991708   0.004383  74.420980  -0.004564  -2.166739   5.694708  -3.197517  -5.529460  -8.665620   3.220527 -12.997552 -21.650656 -19.695124  -0.047188 -87.924025  -0.046784  -0.857157 -10.029089  -0.927944  -5.047047   2.346312  -5.144725  24.818955  -0.002530  -0.002476 -17.034656  -4.083501   2.651714   0.135800  -0.000111  -0.000006 -19.972800  -2.880370   9.012878  46.404439  -0.006717  -0.000496 -13.164530   5.261148   1.876372  -0.303120   0.000547   0.000249
 -2.654565   0.900317   4.208727  -2.285473  -3.312547   0.296890   1.064926   1.286945  -1.152329   0.296339  -5.204700   1.588601   0.370209  -0.130384   1.171484  -3.877075   3.075249  -4.938815 -18.534268   7.892875  12.097667   0.004972  74.238913  -0.005140  -2.185266   5.644179  -3.166347  -5.568274  -8.619258   3.266543 -13.050699 -21.721716 -19.779252  -0.056952 -88.135998  -0.056456  -0.864790 -10.021412  -0.875037  -5.028666   2.379773  -5.192905  24.265471  -0.002606  -0.002161 -16.513143  -4.150981   2.737271   0.133646  -0.000089  -0.000005 -18.897547  -3.199038   9.446825  46.525936  -0.005952  -0.000456 -13.463963   5.146512   2.037914  -0.324534   0.000578   0.000261
 -2.652595   0.901056   4.205645  -2.256911  -3.251847   0.246672   0.890265   1.261993  -1.139097   0.230602  -5.177141   1.570293   0.468101  -0.172645   1.199258  -3.852872   3.013150  -4.976960 -18.609972   7.820253  12.194708   0.005286  74.068675  -0.005441  -2.203049   5.594229  -3.143886  -5.605953  -8.580745   3.309901 -13.102160 -21.790922 -19.858138  -0.065818 -88.333818  -0.065255  -0.872078 -10.015435  -0.820112  -5.026383   2.403593  -5.256597  23.745401  -0.002686  -0.001928 -16.015034  -4.227233   2.816460   0.133251  -0.000071  -0.000004 -17.870949  -3.488343   9.877765  46.645410  -0.005300  -0.000386 -13.742818   5.038741   2.188063  -0.343434   0.000580   0.000256
 -2.650473   0.901714   4.202570  -2.225639  -3.172620   0.202169   0.723685   1.231867  -1.125648   0.165158  -5.158498   1.553142   0.558763  -0.212157   1.225075  -3.831526   2.952374  -5.013720 -18.681179   7.750737  12.283624   0.005377  73.909453  -0.005524  -2.220113   5.545026  -3.128299  -5.641987  -8.548450   3.350482 -13.151463 -21.857827 -19.932228  -0.073906 -88.518873  -0.073299  -0.879089 -10.010806  -0.765158  -5.036780   2.419190  -5.336302  23.255722  -0.002767  -0.001754 -15.537686  -4.311270   2.889089   0.132936  -0.000057  -0.000003 -16.895381  -3.750256  10.301427  46.762407  -0.004734  -0.000298 -14.002590   4.937437   2.327628  -0.360530   0.000565   0.000242
 -2.648301   0.902264   4.199733  -2.229735  -3.143648   0.149256   0.552119   1.187297  -1.134526   0.104994  -5.093200   1.551604   0.661836  -0.294805   1.282814  -3.829893   2.939719  -5.010816 -18.866897   7.703704  12.431469   0.009161  73.476888  -0.009689  -2.218103   5.618699  -3.048324  -5.636311  -8.493604   3.383719 -13.147313 -21.960869 -20.011549  -0.102667 -88.852960  -0.102021  -0.896712  -9.964713  -0.654238  -5.018659   2.419581  -5.428151  22.795582  -0.002778  -0.001332 -15.079466  -4.327102   3.034373   0.132684  -0.000046  -0.000003 -15.657114  -4.115257  10.725279  46.326824  -0.001516   0.000316 -14.261674   4.651726   2.371072  -0.398059   0.000654   0.000391
